<svg width="90" height="59" viewBox="0 0 90 59" fill="none" xmlns="http://www.w3.org/2000/svg">
<g id="Layer_1-2">
<path id="Vector" d="M0.663818 21.3934C0.663818 20.8165 0.663818 20.2423 0.663818 19.6654C0.838309 19.0322 1.00154 18.3961 1.19011 17.7685C1.47436 16.8341 2.04567 16.381 3.02507 16.3754C5.62274 16.3613 8.21758 16.3585 10.8152 16.3754C11.7918 16.381 12.3322 16.8313 12.6333 17.7854C12.7459 18.14 12.8641 18.4918 13.033 19.0097C14.837 14.0367 16.565 9.24942 18.3099 4.47344C19.3766 1.55494 21.5098 0.015479 24.6141 0.0126647C38.2019 -0.00422155 51.7924 -0.00422155 65.3802 0.0126647C68.4873 0.015479 70.6149 1.55212 71.69 4.465C72.5653 6.83751 73.4152 9.22128 74.2793 11.5994C75.1573 14.017 76.0354 16.4317 76.9782 19.0265C77.1527 18.4609 77.2681 18.0781 77.3863 17.701C77.648 16.8623 78.2194 16.3838 79.0975 16.3782C81.7514 16.3585 84.4053 16.3613 87.0593 16.3782C87.9402 16.3838 88.5228 16.8538 88.7873 17.6869C88.9928 18.3398 89.156 19.0068 89.3361 19.6682V21.3962C89.2151 21.8353 89.0969 22.2715 88.9731 22.7105C88.5059 24.3738 88.0978 24.675 86.3388 24.675C84.2027 24.675 82.0666 24.675 79.9333 24.675C79.666 24.675 79.3986 24.7059 78.9483 24.7313C79.2016 24.948 79.286 25.0605 79.3986 25.1112C81.2195 25.9302 81.9878 27.3824 81.9878 29.3187C81.985 38.1614 81.9906 47.0014 81.9822 55.8441C81.9822 57.5721 81.2223 58.3264 79.5055 58.3348C76.4745 58.3489 73.4462 58.3489 70.4151 58.3348C68.6955 58.3264 67.9441 57.5721 67.93 55.8497C67.9131 53.9191 67.9272 51.9912 67.9244 50.0606C67.9244 48.9461 67.9244 47.8316 67.9244 46.6721H22.0727C22.0727 47.0211 22.0727 47.3306 22.0727 47.6402C22.0727 50.3758 22.084 53.1114 22.0671 55.8497C22.0586 57.4821 21.3635 58.3011 19.8437 58.3236C16.641 58.3686 13.4382 58.3658 10.2355 58.3236C8.80016 58.3039 8.10501 57.5412 8.01776 56.103C8.00651 55.9314 8.01213 55.7569 8.01213 55.5852C8.01213 46.9169 8.01213 38.2459 8.01213 29.5776C8.01213 29.3187 8.02058 29.0598 8.03465 28.8008C8.13878 27.1319 8.94088 25.9274 10.4409 25.1816C10.6042 25.0999 10.7449 24.9789 11.0826 24.7482C10.6267 24.7087 10.3903 24.6722 10.1511 24.6722C7.84327 24.6665 5.53268 24.675 3.22489 24.6665C2.03723 24.6609 1.4828 24.2359 1.15352 23.1158C0.987471 22.5445 0.827052 21.9676 0.663818 21.3934ZM18.8137 24.751H71.175C71.1131 24.5258 71.0793 24.3626 71.023 24.2078C69.067 18.7986 67.0998 13.3978 65.1691 7.98014C64.9609 7.39757 64.6288 7.36098 64.1335 7.36098C51.3787 7.36942 38.6268 7.37224 25.8721 7.35254C25.2501 7.35254 24.9743 7.5411 24.7633 8.1293C22.8889 13.3837 20.9779 18.6241 19.081 23.8701C18.9854 24.1318 18.9178 24.402 18.8109 24.751H18.8137ZM21.9939 30.5542C20.6374 30.5542 19.2837 30.5373 17.9272 30.557C15.9824 30.5852 14.5584 31.9248 14.519 33.7316C14.4796 35.5891 15.8558 37.0301 17.8484 37.0695C20.5867 37.1229 23.3279 37.1201 26.0663 37.0695C28.0673 37.0357 29.4436 35.6257 29.4238 33.7626C29.4041 31.9135 27.9744 30.5767 25.9706 30.5514C24.6451 30.5373 23.3167 30.5486 21.9911 30.5514L21.9939 30.5542ZM68.0595 30.5542C66.703 30.5542 65.3493 30.5401 63.9927 30.557C62.0396 30.5823 60.6155 31.9107 60.5761 33.7175C60.5367 35.5891 61.8932 37.0301 63.883 37.0695C66.6495 37.1257 69.4188 37.1286 72.1854 37.0695C74.1695 37.0272 75.5345 35.5581 75.4754 33.6978C75.4191 31.8966 73.9894 30.5823 72.0334 30.5598C70.7078 30.5429 69.3794 30.557 68.0539 30.557L68.0595 30.5542Z" fill="#034FE2"/>
</g>
</svg>
