<svg width="65" height="65" viewBox="0 0 65 65" fill="none" xmlns="http://www.w3.org/2000/svg">
<path id="Vector" d="M0 34.5365C0 33.1834 0 31.8285 0 30.4753C0.0389323 30.2701 0.0778646 30.065 0.113411 29.8598C0.484115 27.7842 0.678776 25.6578 1.2526 23.6382C6.05651 6.75401 23.202 -3.19812 40.2594 0.932635C52.6991 3.94591 62.4034 14.3338 64.5074 26.9042C64.7055 28.0895 64.8375 29.2849 65 30.477V34.5382C64.9645 34.701 64.9171 34.8638 64.8934 35.0283C64.6733 36.5324 64.5345 38.0518 64.2247 39.5372C61.601 52.1533 50.8456 62.4429 38.1621 64.4998C36.9569 64.6948 35.7415 64.8355 34.5312 65H30.4688C30.3266 64.9661 30.1878 64.9186 30.0439 64.8983C28.5611 64.6812 27.063 64.5388 25.5954 64.2454C12.9966 61.7239 2.55091 50.8832 0.507812 38.2315C0.309766 37.0055 0.167578 35.7693 0 34.5365ZM27.4253 25.4408C27.41 22.6072 29.707 20.3112 32.5406 20.3248C35.2862 20.3384 37.4495 22.4902 37.5764 25.3305C37.6323 26.5769 38.499 27.4519 39.6551 27.4264C40.7892 27.401 41.6643 26.448 41.6305 25.2254C41.6152 24.6794 41.5695 24.1232 41.4477 23.5907C40.6724 20.1874 38.631 17.8864 35.337 16.7299C34.7395 16.5196 34.4652 16.2178 34.5245 15.5802C34.5651 15.1393 34.5414 14.6916 34.5296 14.2491C34.4974 13.0909 33.6443 12.2176 32.5372 12.1989C31.4488 12.1803 30.5365 13.0519 30.4772 14.1914C30.4535 14.634 30.4332 15.0833 30.4772 15.5225C30.5483 16.2144 30.2487 16.545 29.6004 16.7587C24.3868 18.4883 21.8427 24.4148 24.2717 29.3341C25.9323 32.6984 28.7388 34.4246 32.4983 34.5332C35.9277 34.6332 38.3178 37.7889 37.3733 41.0074C36.6742 43.3899 34.362 44.9482 31.9516 44.6633C29.4142 44.3649 27.5319 42.3182 27.4236 39.7441C27.3694 38.4384 26.5214 37.5583 25.3432 37.5837C24.1854 37.6092 23.2764 38.5791 23.3831 39.8458C23.4643 40.8259 23.6082 41.8349 23.9434 42.7523C24.937 45.4705 26.8531 47.3205 29.6038 48.2532C30.2504 48.4719 30.55 48.8026 30.4772 49.4927C30.4332 49.9116 30.4603 50.3389 30.4721 50.7611C30.5026 51.9176 31.354 52.7926 32.4628 52.8146C33.5461 52.835 34.4618 51.96 34.5245 50.8222C34.5465 50.422 34.5312 50.0184 34.5312 49.6165C34.5312 48.9326 34.863 48.4719 35.5266 48.2345C40.669 46.393 43.1336 40.5411 40.7283 35.6778C39.0762 32.3389 36.2984 30.6042 32.5626 30.4838C29.6664 30.3905 27.4405 28.2336 27.4253 25.4424V25.4408Z" fill="#034FE2"/>
</svg>
