<svg width="86" height="90" viewBox="0 0 86 90" fill="none" xmlns="http://www.w3.org/2000/svg">
<g id="Layer_1-2">
<g id="Group">
<path id="Vector" d="M44.8009 59.4571C50.8037 59.5582 55.5985 61.953 59.0842 66.8249C61.0878 69.6241 62.0749 72.7958 62.1255 76.2389C62.1574 78.4288 62.1521 80.6186 62.1308 82.8085C62.0936 86.4698 59.3476 89.237 55.689 89.245C47.2276 89.2663 38.7635 89.269 30.3021 89.245C26.702 89.2344 23.9002 86.4591 23.9135 82.8697C23.9241 79.7219 23.7405 76.521 24.2381 73.4397C25.5499 65.3162 32.8325 59.3666 41.1955 59.4704C37.9599 58.7414 35.2486 57.1848 33.3753 54.4042C31.5074 51.629 30.8875 48.5797 31.6272 45.2962C32.8591 39.8415 37.7763 35.97 43.2363 36.1324C48.8613 36.2973 53.6375 40.3844 54.5262 45.8231C55.053 49.0533 54.3692 52.0228 52.4534 54.6836C50.5616 57.3125 47.9353 58.7946 44.8009 59.4598V59.4571Z" fill="#034FE2"/>
<path id="Vector_2" d="M70.0202 57.355C75.2114 57.4029 79.3091 59.2442 82.385 63.1583C84.3487 65.6568 85.3944 68.5225 85.4662 71.7102C85.5035 73.4025 85.5194 75.0974 85.4636 76.787C85.3545 79.9933 82.8799 82.718 79.6976 82.8218C75.3551 82.9628 71.002 82.8563 66.6542 82.8537C66.5957 82.8537 66.5371 82.8058 66.3695 82.7286C66.3695 80.8288 66.3482 78.8811 66.3748 76.9307C66.4174 73.6605 65.7868 70.5421 64.4032 67.5726C62.9903 64.5419 60.9601 61.9982 58.2913 59.8269C60.9042 58.0575 63.7486 57.379 66.8165 57.3098C64.193 56.6872 62.0537 55.3594 60.5636 53.111C59.0576 50.844 58.6052 48.3482 59.1933 45.6927C60.1937 41.1746 64.3845 38.0481 69.0836 38.2823C73.6681 38.5084 77.4412 42.1085 78.0266 46.8182C78.6226 51.5997 75.5626 55.7133 70.0255 57.3577L70.0202 57.355Z" fill="#034FE2"/>
<path id="Vector_3" d="M19.6828 82.8537C15.1088 82.8537 10.6945 82.9655 6.29085 82.8164C3.14842 82.71 0.636605 79.9907 0.580728 76.8509C0.530172 73.9772 0.269412 71.0769 1.07032 68.2431C2.85307 61.9263 8.52062 57.5333 15.0849 57.3896C15.3164 57.3843 15.5452 57.3896 15.8059 57.3231C13.1744 56.6739 11.0244 55.3275 9.53705 53.0525C8.04965 50.7748 7.60796 48.2763 8.2226 45.6288C9.25234 41.1799 13.3367 38.1147 17.9559 38.277C22.5485 38.4393 26.3029 41.917 27.016 46.6692C27.7264 51.4081 24.8714 55.3195 19.132 57.3657C22.2744 57.3684 25.1162 58.0655 27.761 59.8163C25.3423 61.788 23.4319 64.0497 22.0456 66.7371C20.5795 69.5789 19.7386 72.5882 19.6961 75.7919C19.6641 78.1068 19.6907 80.4244 19.6907 82.8537H19.6828Z" fill="#034FE2"/>
<path id="Vector_4" d="M33.4632 20.79C34.1896 18.539 33.3115 16.5992 31.6405 14.8617C30.9327 14.1247 30.3473 13.2626 29.7486 12.4271C28.5939 10.8146 29.2138 8.88552 31.1057 8.28417C32.8725 7.72274 34.6738 7.26774 36.438 6.69034C36.8956 6.54134 37.3692 6.18745 37.6539 5.79631C38.713 4.35414 39.6868 2.84812 40.7139 1.37934C41.9911 -0.44864 44.0213 -0.461944 45.3011 1.35274C46.2936 2.76297 47.2835 4.17587 48.2174 5.62601C48.6245 6.25663 49.1327 6.59455 49.8458 6.78613C51.4769 7.21985 53.0974 7.70678 54.7098 8.20701C56.9023 8.88552 57.5143 10.8013 56.1307 12.6399C55.0743 14.0449 53.9595 15.4072 52.9377 16.8387C52.6397 17.2565 52.4348 17.8418 52.4295 18.3527C52.4188 20.1435 52.5412 21.9342 52.5652 23.7249C52.5918 25.9015 50.9527 27.0855 48.8933 26.3857C47.1371 25.7897 45.4023 25.1245 43.6408 24.5418C43.2709 24.4194 42.792 24.4167 42.4221 24.5365C40.7219 25.0926 39.0456 25.7232 37.3559 26.3112C35.041 27.1175 33.4419 25.9786 33.4632 23.5546C33.4711 22.6925 33.4632 21.8304 33.4632 20.782V20.79Z" fill="#034FE2"/>
<path id="Vector_5" d="M4.16752 26.0478C4.83538 24.0921 3.8562 22.4131 2.40872 20.8646C1.88986 20.3111 1.44816 19.6778 1.01179 19.0552C0.0485685 17.6849 0.591376 16.0724 2.19851 15.5669C3.65132 15.1119 5.13074 14.7393 6.57556 14.2577C7.00662 14.114 7.45363 13.7921 7.72504 13.4276C8.61641 12.2328 9.41466 10.969 10.2768 9.7503C11.3624 8.21501 13.0334 8.20437 14.1323 9.71571C14.5421 10.2771 15.0024 10.8226 15.3004 11.4452C16.2982 13.5233 17.9399 14.6329 20.191 14.9682C20.8402 15.064 21.4655 15.3167 22.0961 15.5243C23.9374 16.1256 24.435 17.7008 23.2642 19.2627C22.3888 20.4308 21.4522 21.5537 20.6167 22.7458C20.34 23.1422 20.1617 23.6957 20.1564 24.1799C20.1378 25.6035 20.2495 27.0297 20.2735 28.4559C20.3081 30.4435 18.9298 31.452 17.0592 30.8187C15.931 30.4355 14.7842 30.087 13.6959 29.6053C12.6901 29.161 11.7775 29.145 10.769 29.5867C9.68074 30.0657 8.53393 30.4142 7.40574 30.8001C5.50325 31.452 4.1622 30.4941 4.16752 28.5038C4.16752 27.7747 4.16752 27.0456 4.16752 26.0478Z" fill="#034FE2"/>
<path id="Vector_6" d="M65.7549 26.2261C66.3749 24.2305 65.6192 22.5728 64.1983 21.096C63.6715 20.5506 63.2537 19.9013 62.7934 19.292C61.5801 17.6822 62.083 16.1043 63.9961 15.5163C65.0418 15.1943 66.0742 14.8192 67.1412 14.5957C68.4184 14.3269 69.3523 13.7309 69.9856 12.5521C70.4832 11.6235 71.159 10.788 71.7657 9.91528C72.9817 8.16179 74.6474 8.14317 75.8554 9.87802C76.6323 10.9929 77.3401 12.161 78.1836 13.2253C78.5614 13.7016 79.1415 14.1034 79.7136 14.3163C80.9216 14.7633 82.1855 15.056 83.4228 15.4258C85.586 16.0751 86.1075 17.6396 84.7532 19.425C83.9123 20.5346 83.0183 21.6069 82.2254 22.7511C81.9487 23.1475 81.7864 23.7036 81.7784 24.1906C81.7544 25.6806 81.8555 27.1734 81.8635 28.6661C81.8715 30.4169 80.5171 31.4174 78.8568 30.8746C77.4093 30.4009 75.9964 29.8235 74.5463 29.3632C74.1152 29.2275 73.5697 29.2222 73.1387 29.3579C71.7497 29.7916 70.3927 30.3291 69.0144 30.8054C67.0906 31.4679 65.7389 30.4568 65.7629 28.4C65.7709 27.7029 65.7629 27.0084 65.7629 26.2288L65.7549 26.2261Z" fill="#034FE2"/>
</g>
</g>
</svg>
