<svg width="116" height="42" viewBox="0 0 116 42" fill="none" xmlns="http://www.w3.org/2000/svg">
<path id="Audi" d="M115.557 16.8776C115.295 15.5629 114.891 14.2686 114.377 13.0252C113.874 11.8125 113.239 10.6404 112.513 9.53977C111.787 8.44929 110.951 7.43015 110.034 6.50274C109.117 5.57532 108.109 4.72943 107.03 3.99565C105.942 3.25168 104.793 2.61981 103.584 2.11024C102.364 1.59048 101.084 1.18282 99.7741 0.917848C98.4337 0.64268 97.0631 0.5 95.6924 0.5C94.3218 0.5 92.9411 0.64268 91.6108 0.917848C90.3107 1.18282 89.0308 1.59048 87.8012 2.11024C86.6019 2.61981 85.4429 3.26187 84.3545 3.99565C83.9413 4.27082 83.5482 4.57656 83.1552 4.8823C82.7621 4.57656 82.3691 4.28101 81.9559 3.99565C80.8674 3.25168 79.7185 2.61981 78.5091 2.11024C77.2897 1.59048 76.0097 1.18282 74.6996 0.917848C73.3692 0.64268 71.9885 0.5 70.6179 0.5C69.2473 0.5 67.8666 0.64268 66.5362 0.917848C65.2361 1.18282 63.9562 1.59048 62.7267 2.11024C61.5274 2.61981 60.3684 3.26187 59.2799 3.99565C58.8466 4.2912 58.4233 4.60713 58.0101 4.93326C57.5969 4.60713 57.1736 4.2912 56.7503 3.99565C55.6619 3.25168 54.5129 2.61981 53.3036 2.11024C52.0841 1.59048 50.8042 1.18282 49.494 0.917848C48.1637 0.64268 46.783 0.5 45.4123 0.5C44.0417 0.5 42.661 0.64268 41.3307 0.917848C40.0306 1.18282 38.7507 1.59048 37.5211 2.11024C36.3218 2.61981 35.1628 3.26187 34.0744 3.99565C33.641 4.2912 33.2278 4.59695 32.8247 4.92307C32.4215 4.59695 31.9983 4.2912 31.575 3.99565C30.4865 3.25168 29.3376 2.61981 28.1282 2.11024C26.9088 1.59048 25.6288 1.18282 24.3187 0.917848C22.9884 0.64268 21.6076 0.5 20.237 0.5C18.8664 0.5 17.4857 0.64268 16.1553 0.917848C14.8553 1.18282 13.5753 1.59048 12.3458 2.11024C11.1465 2.61981 9.98749 3.26187 8.89904 3.99565C7.82068 4.72943 6.81286 5.57532 5.89574 6.50274C4.97863 7.43015 4.14214 8.44929 3.41651 9.53977C2.72111 10.6404 2.09626 11.8125 1.59235 13.0252C1.07837 14.2584 0.675239 15.5527 0.413206 16.8776C0.141095 18.2228 0 19.6191 0 21.0051C0 22.3911 0.141095 23.7873 0.413206 25.1326C0.675239 26.4473 1.07837 27.7416 1.59235 28.9748C2.09626 30.1875 2.73119 31.3596 3.45682 32.4602C4.18245 33.5405 5.01894 34.5699 5.93606 35.4973C6.85317 36.4247 7.86099 37.2706 8.93936 38.0043C10.0278 38.7483 11.1767 39.3802 12.3861 39.8898C13.6056 40.4095 14.8855 40.8172 16.1957 41.0822C17.526 41.3573 18.9067 41.5 20.2773 41.5C21.648 41.5 23.0287 41.3573 24.359 41.0822C25.6591 40.8172 26.939 40.4095 28.1686 39.8898C29.3679 39.3802 30.5268 38.7381 31.6153 38.0043C32.0386 37.7088 32.4619 37.4031 32.865 37.0769C33.2681 37.4031 33.6914 37.7088 34.1147 38.0043C35.2031 38.7483 36.352 39.3802 37.5614 39.8898C38.7809 40.4095 40.0608 40.8172 41.3609 41.0822C42.6912 41.3573 44.0719 41.5 45.4426 41.5C46.8132 41.5 48.1939 41.3573 49.5242 41.0822C50.8243 40.8172 52.1043 40.4095 53.3338 39.8898C54.5331 39.3802 55.6921 38.7381 56.7805 38.0043C57.2139 37.7088 57.6372 37.3929 58.0504 37.0667C58.4636 37.3929 58.8869 37.7088 59.3202 38.0043C60.4087 38.7483 61.5576 39.3802 62.767 39.8898C63.9864 40.4095 65.2664 40.8172 66.5765 41.0822C67.9069 41.3573 69.2876 41.5 70.6582 41.5C72.0288 41.5 73.4096 41.3573 74.7399 41.0822C76.04 40.8172 77.3199 40.4095 78.5494 39.8898C79.7487 39.3802 80.9077 38.7381 81.9962 38.0043C82.4094 37.7292 82.8024 37.4234 83.1955 37.1177C83.5885 37.4234 83.9816 37.719 84.3948 38.0043C85.4832 38.7483 86.6321 39.3802 87.8415 39.8898C89.061 40.4095 90.3409 40.8172 91.641 41.0822C92.9713 41.3573 94.352 41.5 95.7227 41.5C97.0933 41.5 98.474 41.3573 99.8043 41.0822C101.104 40.8172 102.384 40.4095 103.614 39.8898C104.813 39.3802 105.972 38.7381 107.061 38.0043C108.139 37.2706 109.147 36.4247 110.064 35.4973C110.981 34.5699 111.818 33.5507 112.543 32.4602C113.279 31.3596 113.904 30.1977 114.408 28.9748C114.922 27.7416 115.325 26.4473 115.587 25.1224C115.859 23.767 116 22.3809 116 20.9949C115.97 19.6191 115.829 18.2228 115.557 16.8776ZM11.4287 7.75628C12.2752 7.17537 13.1722 6.68618 14.1095 6.27852C15.0669 5.87087 16.0646 5.55493 17.0725 5.35111C18.1105 5.13709 19.1889 5.02498 20.2572 5.02498C21.3255 5.02498 22.4038 5.13709 23.4419 5.35111C24.4598 5.56513 25.4575 5.87087 26.4049 6.27852C27.3421 6.67599 28.2492 7.17537 29.0857 7.75628C29.2671 7.87857 29.4485 8.01106 29.6299 8.14355C29.2671 8.59197 28.9244 9.06078 28.612 9.53977C27.8763 10.6404 27.2514 11.8023 26.7475 13.0252C26.2335 14.2584 25.8304 15.5527 25.5684 16.8776C25.2963 18.2228 25.1552 19.6191 25.1552 21.0051C25.1552 22.3911 25.2963 23.7873 25.5684 25.1326C25.8304 26.4473 26.2335 27.7416 26.7475 28.9748C27.2514 30.1875 27.8864 31.3596 28.612 32.4602C28.9345 32.9392 29.2771 33.408 29.64 33.8564C29.4586 33.9889 29.2771 34.1214 29.0857 34.2539C28.2391 34.8348 27.3421 35.324 26.4049 35.7317C25.4474 36.1393 24.4497 36.4553 23.4419 36.6591C22.4038 36.8731 21.3255 36.9852 20.2572 36.9852C19.1889 36.9852 18.1105 36.8731 17.0725 36.6591C16.0546 36.4451 15.0568 36.1393 14.1095 35.7317C13.1722 35.3342 12.2752 34.8348 11.4287 34.2539C10.5922 33.6832 9.80608 33.0208 9.09053 32.3074C8.37498 31.5838 7.72997 30.7888 7.1656 29.943C6.59114 29.0869 6.10739 28.1798 5.70426 27.232C5.30113 26.2639 4.98871 25.2549 4.78714 24.2358C4.5755 23.1861 4.46464 22.0956 4.46464 21.0153C4.46464 19.935 4.5755 18.8445 4.78714 17.7948C4.99878 16.7655 5.30113 15.7565 5.70426 14.7985C6.09731 13.8507 6.59114 12.9335 7.1656 12.0876C7.72997 11.2417 8.38506 10.4468 9.09053 9.72322C9.80608 8.98944 10.5922 8.327 11.4287 7.75628ZM32.3308 29.943C31.7564 29.0869 31.2726 28.1798 30.8695 27.232C30.4664 26.2639 30.154 25.2549 29.9524 24.2358C29.7407 23.1861 29.6299 22.0956 29.6299 21.0153C29.6299 19.935 29.7407 18.8445 29.9524 17.7948C30.164 16.7655 30.4664 15.7565 30.8695 14.7985C31.2626 13.8507 31.7564 12.9335 32.3308 12.0876C32.4921 11.843 32.6735 11.5984 32.8549 11.3538C33.0363 11.5984 33.2076 11.843 33.379 12.0876C33.9534 12.9437 34.4372 13.8507 34.8403 14.7985C35.2434 15.7667 35.5559 16.7757 35.7574 17.7948C35.9691 18.8445 36.0799 19.935 36.0799 21.0153C36.0799 22.0956 35.9691 23.1861 35.7574 24.2358C35.5458 25.2651 35.2434 26.274 34.8403 27.232C34.4473 28.1798 33.9534 29.0971 33.379 29.943C33.2177 30.1875 33.0363 30.4321 32.8549 30.6767C32.6735 30.4423 32.4921 30.1977 32.3308 29.943ZM37.0777 32.4704C37.8134 31.3698 38.4382 30.2079 38.9421 28.985C39.4561 27.7518 39.8593 26.4575 40.1213 25.1326C40.3934 23.7873 40.5345 22.3911 40.5345 21.0051C40.5345 19.6191 40.3934 18.2228 40.1213 16.8776C39.8593 15.5629 39.4561 14.2686 38.9421 13.0252C38.4382 11.8125 37.8033 10.6404 37.0777 9.53977C36.7552 9.06078 36.4125 8.59197 36.0497 8.14355C36.2311 8.01106 36.4125 7.87857 36.5939 7.75628C37.4405 7.17537 38.3374 6.68618 39.2747 6.27852C40.2321 5.87087 41.2299 5.55493 42.2377 5.35111C43.2758 5.13709 44.3541 5.02498 45.4224 5.02498C46.4907 5.02498 47.5691 5.13709 48.6071 5.35111C49.625 5.56513 50.6228 5.87087 51.5701 6.27852C52.5074 6.67599 53.4144 7.17537 54.2509 7.75628C54.4424 7.88877 54.6339 8.02125 54.8153 8.16393C54.4626 8.61236 54.1199 9.07097 53.8075 9.53977C53.0718 10.6404 52.4469 11.8023 51.943 13.0252C51.429 14.2584 51.0259 15.5527 50.7639 16.8776C50.4917 18.2228 50.3507 19.6191 50.3507 21.0051C50.3507 22.3911 50.4917 23.7873 50.7639 25.1326C51.0259 26.4473 51.429 27.7416 51.943 28.9748C52.4469 30.1875 53.0818 31.3596 53.8075 32.4602C54.13 32.9392 54.4626 33.3978 54.8254 33.8463C54.6339 33.9889 54.4525 34.1214 54.2509 34.2539C53.4043 34.8348 52.5074 35.324 51.5701 35.7317C50.6127 36.1393 49.6149 36.4553 48.6071 36.6591C47.5691 36.8731 46.4907 36.9852 45.4224 36.9852C44.3541 36.9852 43.2758 36.8731 42.2377 36.6591C41.2198 36.4451 40.2221 36.1393 39.2747 35.7317C38.3374 35.3342 37.4405 34.8348 36.5939 34.2539C36.4125 34.1316 36.221 33.9991 36.0497 33.8564C36.4125 33.4182 36.7552 32.9494 37.0777 32.4704ZM57.5263 29.943C56.9519 29.0869 56.4681 28.1798 56.065 27.232C55.6619 26.2639 55.3494 25.2549 55.1479 24.2358C54.9362 23.1861 54.8254 22.0956 54.8254 21.0153C54.8254 19.935 54.9362 18.8445 55.1479 17.7948C55.3595 16.7655 55.6619 15.7565 56.065 14.7985C56.458 13.8507 56.9519 12.9335 57.5263 12.0876C57.6876 11.843 57.8589 11.6086 58.0302 11.3742C58.2016 11.6086 58.3729 11.843 58.5341 12.0876C59.1086 12.9437 59.5924 13.8507 59.9955 14.7985C60.3986 15.7667 60.711 16.7757 60.9126 17.7948C61.1242 18.8445 61.2351 19.935 61.2351 21.0153C61.2351 22.0956 61.1242 23.1861 60.9126 24.2358C60.701 25.2651 60.3986 26.274 59.9955 27.232C59.6024 28.1798 59.1086 29.0971 58.5341 29.943C58.3729 30.1875 58.2016 30.422 58.0302 30.6564C57.8589 30.422 57.6876 30.1875 57.5263 29.943ZM62.2429 32.4704C62.9786 31.3698 63.6035 30.2079 64.1074 28.985C64.6214 27.7518 65.0245 26.4575 65.2865 25.1326C65.5586 23.7873 65.6997 22.3911 65.6997 21.0051C65.6997 19.6191 65.5586 18.2228 65.2865 16.8776C65.0245 15.5629 64.6214 14.2686 64.1074 13.0252C63.6035 11.8125 62.9685 10.6404 62.2429 9.53977C61.9305 9.06078 61.5878 8.60216 61.2351 8.15374C61.4165 8.01106 61.608 7.87857 61.7995 7.74609C62.646 7.16518 63.543 6.67599 64.4803 6.26833C65.4377 5.86068 66.4354 5.54474 67.4433 5.34091C68.4813 5.1269 69.5597 5.01479 70.628 5.01479C71.6963 5.01479 72.7746 5.1269 73.8127 5.34091C74.8306 5.55493 75.8283 5.86068 76.7757 6.26833C77.7129 6.6658 78.62 7.16518 79.4565 7.74609C79.6177 7.85819 79.779 7.9703 79.9301 8.0824C79.5573 8.55121 79.2045 9.0302 78.8719 9.52958C78.1362 10.6303 77.5114 11.7921 77.0075 13.015C76.4935 14.2482 76.0904 15.5425 75.8283 16.8674C75.5562 18.2127 75.4151 19.6089 75.4151 20.9949C75.4151 22.3809 75.5562 23.7772 75.8283 25.1224C76.0904 26.4371 76.4935 27.7314 77.0075 28.9646C77.5114 30.1774 78.1463 31.3494 78.8719 32.45C79.2045 32.9494 79.5573 33.4284 79.9402 33.8972C79.779 34.0195 79.6177 34.1316 79.4565 34.2437C78.6099 34.8246 77.7129 35.3138 76.7757 35.7215C75.8182 36.1291 74.8205 36.4451 73.8127 36.6489C72.7746 36.8629 71.6963 36.975 70.628 36.975C69.5597 36.975 68.4813 36.8629 67.4433 36.6489C66.4254 36.4349 65.4276 36.1291 64.4803 35.7215C63.543 35.324 62.646 34.8246 61.7995 34.2437C61.608 34.1112 61.4165 33.9788 61.2351 33.8361C61.5878 33.408 61.9204 32.9392 62.2429 32.4704ZM82.5908 29.943C82.0163 29.0869 81.5326 28.1798 81.1295 27.232C80.7263 26.2639 80.4139 25.2549 80.2123 24.2358C80.0007 23.1861 79.8898 22.0956 79.8898 21.0153C79.8898 19.935 80.0007 18.8445 80.2123 17.7948C80.424 16.7655 80.7263 15.7565 81.1295 14.7985C81.5225 13.8507 82.0163 12.9335 82.5908 12.0876C82.7722 11.8125 82.9637 11.5475 83.1653 11.2825C83.3668 11.5475 83.5583 11.8125 83.7397 12.0876C84.3142 12.9437 84.7979 13.8507 85.201 14.7985C85.6042 15.7667 85.9166 16.7757 86.1182 17.7948C86.3298 18.8445 86.4407 19.935 86.4407 21.0153C86.4407 22.0956 86.3298 23.1861 86.1182 24.2358C85.9065 25.2651 85.6042 26.274 85.201 27.232C84.808 28.1798 84.3142 29.0971 83.7397 29.943C83.5583 30.2181 83.3668 30.4831 83.1653 30.7481C82.9637 30.4831 82.7722 30.2181 82.5908 29.943ZM87.4384 32.4704C88.1741 31.3698 88.799 30.2079 89.3029 28.985C89.8169 27.7518 90.22 26.4575 90.482 25.1326C90.7541 23.7873 90.8952 22.3911 90.8952 21.0051C90.8952 19.6191 90.7541 18.2228 90.482 16.8776C90.22 15.5629 89.8169 14.2686 89.3029 13.0252C88.799 11.8125 88.164 10.6404 87.4384 9.53977C87.1058 9.04039 86.7531 8.5614 86.3802 8.09259C86.5414 7.98049 86.7027 7.85819 86.8639 7.74609C87.7105 7.16518 88.6075 6.67599 89.5447 6.26833C90.5022 5.86068 91.4999 5.54474 92.5077 5.34091C93.5458 5.1269 94.6242 5.01479 95.6924 5.01479C96.7607 5.01479 97.8391 5.1269 98.8772 5.34091C99.8951 5.55493 100.893 5.86068 101.84 6.26833C102.777 6.6658 103.684 7.16518 104.521 7.74609C105.357 8.3168 106.144 8.97925 106.859 9.70284C107.575 10.4264 108.22 11.2214 108.784 12.0672C109.358 12.9233 109.842 13.8304 110.245 14.7782C110.648 15.7463 110.961 16.7553 111.162 17.7744C111.374 18.8241 111.485 19.9146 111.485 20.9949C111.485 22.0752 111.374 23.1657 111.162 24.2154C110.951 25.2447 110.648 26.2537 110.245 27.2117C109.852 28.1595 109.358 29.0767 108.784 29.9226C108.22 30.7685 107.565 31.5634 106.859 32.287C106.154 33.0106 105.357 33.6628 104.521 34.2335C103.674 34.8144 102.777 35.3036 101.84 35.7113C100.883 36.1189 99.885 36.4349 98.8772 36.6387C97.8391 36.8527 96.7607 36.9648 95.6924 36.9648C94.6242 36.9648 93.5458 36.8527 92.5077 36.6387C91.4898 36.4247 90.4921 36.1189 89.5447 35.7113C88.6075 35.3138 87.7105 34.8144 86.8639 34.2335C86.7027 34.1214 86.5414 34.0093 86.3802 33.887C86.7531 33.4488 87.1058 32.9698 87.4384 32.4704Z" fill="black"/>
</svg>
