<svg width="76" height="30" viewBox="0 0 76 30" fill="none" xmlns="http://www.w3.org/2000/svg">
<path id="Ford" d="M37.9999 0.5C16.9283 0.5 0 6.93776 0 15C0 23.0021 17.0467 29.5 37.9999 29.5C58.9532 29.5 75.9998 23.0021 75.9998 15C76.059 7.05809 58.9532 0.5 37.9999 0.5ZM37.9999 28.2365C17.8754 28.2365 1.59813 22.3402 1.59813 15C1.59813 7.71992 17.9345 1.76348 37.9999 1.76348C58.1245 1.76348 74.4017 7.65975 74.4017 15C74.4609 22.3402 58.1245 28.2365 37.9999 28.2365ZM52.975 17.9481C52.975 18.0083 52.975 18.0685 52.975 18.0685C52.975 18.1286 53.0934 18.1888 53.1525 18.249C53.1525 18.249 53.2117 18.3091 53.1525 18.3693C52.9158 18.9108 52.679 19.2116 52.3831 19.6328C52.0871 20.0539 51.7912 20.3548 51.436 20.6556C50.9033 21.1369 50.0747 21.6183 49.4236 21.3174C49.1276 21.1369 49.0093 20.7759 49.0093 20.4149C49.0093 19.5124 49.4236 18.5498 50.1931 17.5871C51.0809 16.444 52.1463 15.8423 52.7974 16.2033C53.5077 16.5042 53.3301 17.3465 52.975 17.9481ZM34.1526 11.9315C34.0934 11.5705 34.2118 11.1494 34.5669 10.8485C34.7445 10.668 34.9812 10.668 35.1588 10.7884C35.3364 10.9087 35.218 11.2697 35.0996 11.5705C34.9221 11.8714 34.6261 12.112 34.3302 12.112C34.2118 12.0519 34.1526 12.0519 34.1526 11.9315ZM37.9999 2.90664C18.5856 2.90664 2.84112 8.38174 2.84112 15.0602C2.84112 21.6784 18.5856 27.1535 37.9999 27.1535C57.4142 27.1535 73.1587 21.6784 73.1587 15C73.1587 8.32158 57.4142 2.90664 37.9999 2.90664ZM19.947 23.0021C17.8754 23.0021 16.0405 21.7386 15.8037 19.4523C15.6853 18.1888 16.0405 17.1058 16.7507 16.1432C17.3426 15.3008 18.4081 14.639 19.2959 14.4585C19.5919 14.3983 19.947 14.4585 20.1246 14.639C20.3613 14.9398 20.3021 15.2407 20.0654 15.4212C19.4143 15.7822 18.5856 16.3838 18.1713 17.166C17.8162 17.8278 17.757 18.6701 18.2897 19.3921C19.1183 20.6556 21.4268 20.7158 23.6168 18.6701C24.1495 18.1888 24.623 17.7075 25.0965 17.1058C26.0436 16.0228 26.3395 15.6017 27.6417 13.7967V13.7365C27.6417 13.7365 27.6417 13.7365 27.5825 13.6763C26.7538 13.6763 25.9844 13.9772 25.2741 14.5187C25.0965 14.6992 24.8006 14.639 24.623 14.4585C24.5046 14.2178 24.5638 13.917 24.8006 13.7967C25.9252 12.9544 27.2274 12.834 28.4703 12.5934C28.4703 12.5934 28.5887 12.5934 28.6479 12.473C29.1806 11.8112 29.595 11.1494 30.1277 10.4876C30.7196 9.76556 31.4298 9.1639 31.9626 8.62241C32.732 7.96058 33.2647 7.71992 33.7383 7.41909C33.8566 7.35892 33.7383 7.23859 33.6791 7.23859C30.8379 6.6971 27.8785 5.9751 25.0965 7.05809C23.1433 7.78008 22.3146 9.3444 22.7289 10.4274C23.0249 11.1494 23.9719 11.2697 24.919 10.8485C25.6884 10.4876 26.3395 9.88589 26.8722 9.10373C27.1682 8.68257 27.7009 8.9834 27.4049 9.70539C26.5763 11.6909 24.9781 13.2552 23.0841 13.3154C21.4268 13.3755 20.4205 12.1722 20.4205 10.668C20.4205 7.71991 23.676 5.73444 27.109 5.43361C31.2523 5.07261 35.1588 6.21577 39.2429 6.69709C42.38 7.05809 45.3987 7.11826 48.5357 6.3361C48.8909 6.27593 49.1868 6.5166 49.1276 6.87759C49.0684 7.41909 48.6541 7.96058 47.6479 8.56224C46.4641 9.22406 45.2211 9.40456 43.9189 9.40456C40.7818 9.40456 37.8815 8.20124 34.8629 7.53942C34.8629 7.65975 34.9221 7.84025 34.8037 7.90041C33.1464 9.1639 31.6074 10.4274 30.6012 12.1722C30.542 12.2324 30.6012 12.2324 30.6604 12.2324C31.5482 12.1722 32.3177 12.1722 33.1464 12.112C33.2647 12.112 33.2647 12.0519 33.2647 11.9315C33.2055 11.3299 33.3831 10.6079 33.9158 10.1266C34.4485 9.64523 35.1588 9.58506 35.5731 9.94606C36.1058 10.3672 36.0467 11.0892 35.7507 11.6307C35.4548 12.1722 34.9812 12.473 34.5669 12.6535C34.5669 12.6535 34.4485 12.6535 34.5077 12.7739C34.5077 12.8942 35.1588 13.2552 35.218 13.3755C35.2772 13.4357 35.218 13.6162 35.1588 13.6763C35.0996 13.7365 34.9812 13.7967 34.8629 13.7967C34.7445 13.7967 34.6853 13.7365 34.5669 13.6763C34.271 13.4958 33.9158 13.2552 33.7383 12.9544C33.6791 12.834 33.6199 12.834 33.4423 12.834C32.5545 12.8942 31.1931 13.0145 30.246 13.1349C30.0093 13.1349 30.0093 13.195 29.9501 13.3154C28.4703 15.7822 26.8722 18.4896 25.0965 20.2946C23.2024 22.4606 21.6043 23.0021 19.947 23.0021ZM60.3737 10.8485C60.0778 11.3299 54.5139 19.9938 54.1588 20.8361C54.0404 21.1369 54.0404 21.3174 54.1588 21.4979C54.4547 21.9191 55.1058 21.6784 55.5201 21.3776C56.7039 20.5353 57.5326 19.5124 58.4796 18.61C58.5388 18.5498 58.598 18.5498 58.6572 18.61C58.7756 18.7303 59.0123 18.9108 59.1307 19.0311C59.1899 19.0913 59.1899 19.1515 59.1307 19.2116C58.2429 20.3548 57.2366 21.3776 56.2896 22.1597C54.8099 23.3029 53.3301 23.6037 52.5606 22.8817C52.2647 22.5809 52.1463 22.2199 52.1463 21.8589C52.1463 21.6784 52.0279 21.6784 51.9687 21.7386C51.0809 22.6411 49.542 23.6037 48.1806 22.8817C46.9968 22.2801 46.76 20.8963 46.9968 19.6929C46.9968 19.6929 46.9968 19.5124 46.8192 19.5726C46.5825 19.7531 46.2865 19.9336 45.8722 20.1141C45.3987 20.2946 45.1619 20.3548 44.6884 20.3548C44.0965 20.3548 43.623 20.1141 43.2678 19.5124C43.0903 19.2116 42.9719 18.7303 42.9719 18.3693C42.9719 18.3091 42.9127 18.249 42.8535 18.3693C41.9065 19.8133 41.0186 21.2573 40.0716 22.7614C40.0124 22.8216 39.9532 22.8817 39.894 22.8817C39.3021 22.8817 38.651 22.8817 38.0591 22.8817C37.9407 22.8817 37.8815 22.8216 37.9407 22.7012C38.2959 22.0394 40.0716 19.3921 41.3146 17.1058C41.6697 16.5042 41.6105 16.1432 41.3738 16.0228C41.137 15.8423 40.6043 16.083 40.1308 16.444C38.947 17.3465 37.9407 18.7905 37.408 19.4523C37.1121 19.8133 36.8161 20.4149 36.0467 21.2573C34.8037 22.6411 33.1464 23.4232 31.6074 22.8817C30.7196 22.5809 30.1277 21.8589 29.8909 21.0166C29.8317 20.8361 29.7725 20.7759 29.6541 20.8963C29.4174 21.1971 28.8847 21.6784 28.4112 21.9793C28.352 22.0394 28.2336 22.0996 28.1152 22.0394C27.9968 21.9793 27.7009 21.5581 27.6417 21.3776C27.5825 21.2573 27.6417 21.1971 27.7009 21.1369C28.352 20.5954 28.6479 20.2344 28.9439 19.9336C29.1214 19.6929 29.299 19.3921 29.4766 18.9108C29.8317 17.9481 30.7196 16.1432 32.4361 15.1805C33.0872 14.8195 33.7383 14.5788 34.5077 14.4585C34.8037 14.3983 35.0996 14.4585 35.1588 14.6992C35.218 14.8195 35.2772 15.0602 35.3364 15.1805C35.3956 15.3008 35.3364 15.361 35.218 15.4212C34.2118 15.8423 33.2055 16.444 32.4953 17.4066C31.6666 18.4896 31.489 19.8133 32.0217 20.5353C32.4361 21.0768 33.028 21.1971 33.6791 20.9564C34.6261 20.6556 35.3956 19.8133 35.8099 18.7905C36.2242 17.7075 36.3426 16.5041 35.9875 15.361C35.9283 15.1805 35.9875 15 36.1059 14.9398C36.3426 14.7593 36.6977 14.5788 36.7569 14.5187C36.9937 14.3983 37.2305 14.4585 37.3488 14.639C37.704 15.1203 37.8815 15.8423 37.8815 16.6245C37.8815 16.805 37.9407 16.805 38.0591 16.6846C38.651 16.0228 39.2429 15.361 39.8348 14.8195C40.4267 14.3382 41.1962 13.9772 41.8473 13.9772C42.7351 13.9772 43.2086 14.639 43.1494 15.722C43.1494 15.8423 43.2678 15.8423 43.327 15.7822C43.623 15.361 43.8005 15.1805 44.0965 14.9398C44.7476 14.3983 45.3395 14.1577 46.0498 14.2178C46.8784 14.278 47.5295 15.0602 47.4111 15.9025C47.3519 16.444 46.9968 16.9855 46.5233 17.2261C46.1089 17.4668 45.5762 17.4066 45.2211 17.1058C44.9251 16.8651 44.866 16.444 44.9251 16.083C44.9251 16.0228 44.866 15.9025 44.7476 16.0228C43.9189 16.8651 43.8597 17.9481 44.3924 18.4896C44.9843 19.0311 45.813 18.6701 46.4641 18.249C47.6479 17.4668 48.5357 16.444 49.542 15.6017C50.2522 15.0602 51.0217 14.5788 51.9096 14.4585C52.3831 14.3983 52.8566 14.3983 53.3301 14.639C53.9812 14.8797 54.3363 15.4212 54.3955 15.9025C54.3955 16.0228 54.5139 16.083 54.5731 15.9627C55.0466 15.1805 57.7694 11.0892 58.0061 10.668C58.0653 10.5477 58.1245 10.4876 58.3021 10.4876C58.894 10.4876 59.6634 10.4876 60.1961 10.4876C60.3737 10.7282 60.3737 10.7884 60.3737 10.8485Z" fill="black"/>
</svg>
