<svg width="77" height="16" viewBox="0 0 77 16" fill="none" xmlns="http://www.w3.org/2000/svg">
<path id="GMC" d="M0 4.40103C0 1.77497 1.58928 0.00316509 4.59536 0.00316509H24.1041V3.72711H5.18056C4.6508 3.72711 4.17956 4.00554 4.17956 4.82816V11.0358C4.17956 11.7888 4.48756 12.2761 5.45468 12.2761H18.7818C19.4841 12.2761 20.0262 12.0198 20.0262 11.0706V9.61835H12.2245V6.07158H24.1041V11.7762C24.1041 14.5066 22.1698 16 19.133 16H4.62616C1.69092 16 0 14.3674 0 11.6338V4.40103ZM41.5061 16L48.1712 3.86632V16H52.3477V0.00316509H45.9228L39.5688 11.4914L33.2147 0H26.7929V15.9968H30.9694V3.86632L37.6345 16H41.5061ZM77 16H59.5302C56.5888 16 54.9041 14.3674 54.9041 11.6369V4.40103C54.9041 1.77497 56.4872 0.00316509 59.4933 0.00316509H77V4.02452H60.0816C59.5518 4.02452 59.0775 4.29978 59.0775 5.1224V10.7384C59.0775 11.4946 59.3886 11.9786 60.3557 11.9786H77V16Z" fill="black"/>
</svg>
