<svg width="82" height="42" viewBox="0 0 82 42" fill="none" xmlns="http://www.w3.org/2000/svg">
<path id="Hyundai" d="M41 41.5C63.6535 41.5 82 32.3183 82 21.0047C82 9.69113 63.6535 0.5 41 0.5C18.3562 0.5 0 9.68165 0 20.9953C0 32.3089 18.3562 41.5 41 41.5ZM48.7003 31.4277C48.0294 32.9627 46.8433 36.2696 44.1501 37.5772C43.3237 37.9562 42.3028 38.1552 41.4181 38.1836C41.2139 38.212 41.0778 38.1836 41.0292 38.1836C33.4553 38.1836 26.4162 37.1792 20.5146 35.4168C20.466 35.3884 20.3299 35.341 20.3299 35.341C19.7368 35.161 19.4548 34.9146 19.4548 34.6114C19.4548 34.3556 19.5812 34.1566 19.7951 33.9576C19.8729 33.8818 19.9993 33.7776 20.1548 33.626C21.4966 32.5173 25.6384 29.6179 33.3289 26.7089C36.0512 25.7045 39.4347 24.4443 42.9834 23.7052C45.0835 23.3167 52.7934 22.1892 48.7003 31.4277ZM69.4579 10.7808C69.5843 10.525 69.7982 10.307 70.1579 10.307C70.3621 10.2786 70.5954 10.3355 70.9843 10.5818C75.797 13.4718 78.6749 17.0819 78.6749 20.9953C78.6749 28.0734 69.3607 34.1376 56.0602 36.8002C55.2046 36.9802 54.6407 36.9802 54.4366 36.7528C54.3102 36.6012 54.2518 36.4022 54.4366 36.1275C54.5143 35.9758 54.6213 35.8527 54.7963 35.6726C62.0493 27.3343 67.5815 15.0258 69.1273 11.4535C69.2246 11.1598 69.3412 10.9324 69.4579 10.7808ZM33.4261 10.506C34.097 8.97099 35.2831 5.66409 37.9763 4.35648C38.8027 3.95852 39.8236 3.77848 40.7083 3.75006C40.9125 3.75006 41.0681 3.75006 41.1167 3.75006C48.6614 3.75006 55.7102 4.78287 61.6021 6.51687C61.6507 6.51687 61.7868 6.56425 61.8354 6.59267C62.3799 6.77271 62.6618 7.01906 62.6618 7.32228C62.6618 7.59706 62.5063 7.7771 62.3216 7.97608C62.2438 8.05188 62.1174 8.17506 61.9618 8.30772C60.5909 9.41634 56.5075 12.3158 48.7878 15.1868C46.0654 16.2197 42.682 17.4515 39.1333 18.219C37.0332 18.6264 29.3329 19.7635 33.4261 10.506ZM25.9981 5.19032C26.8537 5.01028 27.5245 5.01028 27.6995 5.23769C27.8259 5.36087 27.8843 5.58828 27.6995 5.86307C27.6218 6.01467 27.5148 6.13785 27.3593 6.33684C20.0965 14.6752 14.5741 26.9837 13.0282 30.5275C12.9018 30.7833 12.7949 31.0297 12.6879 31.1813C12.5324 31.4371 12.3282 31.6361 11.9879 31.6551C11.8032 31.6551 11.5504 31.6077 11.1323 31.3803C6.31966 28.4903 3.35428 24.8802 3.35428 20.9668C3.39317 13.9171 12.7074 7.84342 25.9981 5.19032Z" fill="black"/>
</svg>
