<svg width="73" height="32" viewBox="0 0 73 32" fill="none" xmlns="http://www.w3.org/2000/svg">
<path id="Kia" d="M65.2495 6.18848C56.4574 1.87798 46.5442 0 36.728 0C26.8295 0 16.5103 1.50067 7.75049 6.18848C4.07828 8.16364 0 11.6195 0 16.0243C0 20.3805 4.01354 23.9964 7.72107 25.8115C16.5279 30.1363 26.4588 32 36.2896 32C46.1852 32 56.5074 30.4993 65.2642 25.8287C68.9041 23.8878 73 20.4463 73 16.0557C73 11.6509 69.0188 8.02072 65.2495 6.18848ZM23.5634 24.328L17.5813 17.3335H17.4018V24.328H12.7527V8.73247H11.7287V7.68915H17.4018V13.546H17.5813L22.4894 7.68915H27.7211L21.2212 15.4555L28.7627 24.328H23.5634ZM38.4494 24.328H33.8032V8.79536H32.7969V7.64341H38.4523V24.328H38.4494ZM56.425 24.328L52.6057 13.4517L48.7716 24.328H43.7017L49.2748 8.72961H48.3656V7.70344H55.5334L61.3684 24.328H56.425Z" fill="black"/>
</svg>
