<svg width="67" height="52" viewBox="0 0 67 52" fill="none" xmlns="http://www.w3.org/2000/svg">
<path id="Opel" d="M33.4867 48.3295C20.9053 48.3295 10.4702 38.206 10.4702 26.0004C10.4702 25.3657 10.5002 24.7369 10.5556 24.1146L29.8142 25.2804L21.4844 30.8633C21.3716 30.9403 21.2973 31.0671 21.2973 31.2104C21.2973 31.4441 21.4929 31.6338 21.7338 31.6338H55.744C53.1288 41.1698 44.0671 48.3295 33.4867 48.3295ZM33.4867 3.67055C46.0682 3.67055 56.5033 13.7948 56.5033 26.0004C56.5033 26.6301 56.4747 27.2549 56.4197 27.873L37.1798 26.6865L45.5284 21.1367C45.642 21.0597 45.7154 20.9329 45.7154 20.7896C45.7154 20.5559 45.5207 20.3662 45.2807 20.3662H11.2294C13.8455 10.8302 22.9064 3.67055 33.4867 3.67055ZM66.4969 28.4944L60.1998 28.1058C60.2572 27.4115 60.2877 26.7088 60.2877 26.0004C60.2877 11.6405 48.2888 0 33.4867 0C20.6798 0 9.97222 8.71569 7.31946 20.3662H2.37434C2.05065 20.3662 1.76109 20.5153 1.57749 20.7473L0.105873 22.7185C0.0396113 22.8013 0 22.9049 0 23.0176C0 23.2877 0.224664 23.5056 0.5031 23.5056L6.77544 23.8851C6.71734 24.5827 6.6866 25.2878 6.6866 26.0004C6.6866 40.3595 18.6855 52 33.4867 52C46.2937 52 57.0012 43.2843 59.6549 31.6338H64.6248C64.9493 31.6338 65.238 31.4847 65.4217 31.2527L66.8941 29.2815C66.9603 29.1987 67 29.0951 67 28.9824C67 28.7123 66.7745 28.4944 66.4969 28.4944Z" fill="#1A171B"/>
</svg>
