<svg width="48" height="50" viewBox="0 0 48 50" fill="none" xmlns="http://www.w3.org/2000/svg">
<path id="Peageot" fill-rule="evenodd" clip-rule="evenodd" d="M22.248 0.218775C20.6735 0.504396 19.2524 0.97139 17.8977 1.64917C17.1907 2.00244 16.9817 2.16714 16.3463 2.87106C16.169 3.06747 15.9813 3.18054 15.6319 3.3008C12.7016 4.30897 12.2859 4.6459 12.7744 5.61714C13.5355 7.12989 14.4381 8.18642 15.1587 8.4093C15.7971 8.60668 15.8934 8.5959 16.028 8.3142C16.2536 7.84067 17.3145 7.39394 18.3427 7.33936L18.9422 7.30766L19.241 7.62858C19.816 8.24655 20.0103 8.92531 19.6822 9.16812C19.1826 9.5374 17.0049 9.72335 16.5037 9.43936L16.2167 9.27629L16.0289 9.4642C15.9257 9.56779 15.7488 9.69917 15.6358 9.75636C15.0542 10.0505 15.0569 10.222 15.6564 11.141C16.8564 12.9809 17.5222 13.2825 18.6866 12.5139C19.5257 11.96 19.818 11.9302 20.1814 12.3622C20.4968 12.7377 20.3512 13.073 19.3053 14.3789C18.6268 15.226 18.8423 15.2531 16.4224 14.0155C8.56738 9.99851 8.77701 10.0792 6.21277 10.0867C3.86861 10.0936 3.61587 10.1766 2.50534 11.3054C1.37358 12.4554 1.19497 13.006 1.64363 13.9619C2.01685 14.7573 2.05277 14.7734 2.92689 14.5335C4.19122 14.1864 4.97489 14.5142 5.09865 15.4423C5.15318 15.8518 5.18877 15.8763 5.80461 15.9253C6.44918 15.9769 7.11595 16.2936 8.08346 17.0086C9.44216 18.0129 9.48428 18.1521 8.45767 18.2479C6.9971 18.3841 4.2993 18.9377 3.0833 19.3505C1.60738 19.8518 1.25146 20.1276 0.744034 21.1645C-0.232619 23.16 -0.243068 23.839 0.684932 24.9923C1.1042 25.5135 1.15187 25.5162 2.03775 25.0691C3.60314 24.2792 4.24085 24.2577 4.7571 24.9769C4.91448 25.1962 5.0304 25.2969 5.09636 25.2717C5.81016 24.9975 5.90354 24.9923 10.0221 24.9939C16.0325 24.9966 16.4328 25.0992 18.6791 27.2149L19.1385 27.6475L18.6882 28.3966C17.1502 30.9547 15.0601 34.7292 14.1262 36.6345C13.2541 38.4142 13.1979 38.693 13.257 40.9354L13.304 42.7175L13.1372 42.8845C12.9259 43.0959 12.3006 43.2446 10.0903 43.6093C6.11677 44.2645 6.02665 44.3472 5.6002 47.7175C5.32983 49.8557 5.3491 49.9178 6.23856 49.7737C8.05603 49.4792 12.7881 49.4632 17.3977 49.7361C18.8861 49.824 19.8657 49.856 19.9039 49.8178C19.9421 49.7796 19.9346 49.1603 19.8849 48.2328C19.7194 45.1377 19.736 45.0743 21.0941 43.575C21.5708 43.0488 22.9243 41.5475 24.1017 40.239C27.3066 36.6776 27.5721 36.3962 27.7275 36.3962C27.7857 36.3962 27.9963 36.5253 28.1961 36.6832C29.1826 37.4639 34.1746 41.0907 34.6928 41.4034C35.1914 41.7044 35.8729 41.9116 36.6209 41.9894C37.5891 42.09 37.8444 42.2815 37.8451 42.9077C37.8454 43.3998 37.7445 43.46 36.4822 43.7227C33.2276 44.3995 33.164 44.4822 32.7127 48.6289C32.5664 49.9727 32.4629 49.8874 33.9679 49.66C34.986 49.5057 40.043 49.5475 42.5906 49.7312C43.7599 49.8152 44.7463 49.8658 44.7829 49.8433C44.8195 49.8207 45.0245 49.5662 45.2391 49.2776C45.4536 48.989 46.0818 48.3001 46.635 47.7462C47.7844 46.5966 47.7576 46.66 47.4441 45.8132C46.2751 42.6537 42.9109 36.6096 40.3264 33.026C39.3432 31.6622 39.3475 31.5596 40.4302 30.5926C44.7091 26.7733 44.8185 25.6655 41.5862 18.8988C38.8838 13.242 38.7473 12.9224 38.3591 11.3348C37.787 8.99819 38.5791 6.99198 40.0763 6.98577C40.6046 6.98381 40.7352 7.13806 40.7973 7.83871C41.0516 10.7015 42.9524 13.5792 45.4089 14.8201C46.3081 15.2747 46.3724 15.0783 45.9097 13.293C45.7432 12.6505 45.3478 11.1135 45.0311 9.87793C44.0273 5.96028 43.8196 5.54328 42.4616 4.72139C40.1834 3.34263 37.6675 4.08479 36.1896 6.57139C36.01 6.87335 35.848 7.12041 35.8294 7.12041C35.192 7.12041 32.7819 4.51943 32.5226 3.55178C32.3326 2.84361 32.392 2.88511 30.5631 2.18185C26.2314 0.516161 23.7883 -0.0606366 22.248 0.218775ZM20.3623 2.92204C20.3623 3.08642 18.8648 3.71649 18.4743 3.71649C18.296 3.71649 18.2627 3.48217 18.4123 3.2776C18.6382 2.96845 20.3623 2.65407 20.3623 2.92204ZM38.8198 19.1201C40.8407 22.9034 40.9883 23.2191 41.0281 23.8417C41.1016 24.9861 40.2928 25.8387 38.1478 26.8773C36.393 27.7273 36.4583 27.7603 33.8428 24.6841C31.5068 21.9371 31.3974 21.7658 31.5894 21.1629C31.7755 20.5789 31.9352 20.49 34.2399 19.6877C36.7656 18.8086 36.8541 18.7289 36.9334 17.26C37.0157 15.741 37.0144 15.7397 38.8198 19.1201Z" fill="black"/>
</svg>
