<svg width="56" height="50" viewBox="0 0 56 50" fill="none" xmlns="http://www.w3.org/2000/svg">
<path id="Seat" d="M18.8242 0.14726C29.268 -0.223531 39.7222 0.14463 50.1477 0.819154C51.2454 0.915139 52.3573 0.90725 53.438 1.13998C54.0227 1.28199 54.6544 1.50683 54.9963 2.04198C55.3083 2.62446 55.3148 3.30424 55.3957 3.9459C55.6437 7.09762 55.7168 10.2625 55.9504 13.4142C55.4988 13.4694 55.0472 13.3998 54.5957 13.3853C46.5547 12.9659 38.5071 12.6174 30.4531 12.6069C26.2818 12.6187 22.1054 12.578 17.938 12.7818C16.9279 12.9317 15.7846 13.2722 15.2012 14.1795C18.3544 14.7435 21.5011 15.3523 24.653 15.9269C35.0994 17.8966 45.5536 19.8229 56 21.7899C55.9909 23.7859 55.9948 25.7818 55.9987 27.7778C50.1242 26.7982 44.2602 25.7411 38.3897 24.7299C25.7598 22.5367 13.1338 20.3133 0.5 18.1411C0.524798 15.9256 0.618768 13.7114 0.664448 11.4945C0.744062 9.73918 0.694467 7.96017 1.08862 6.23639C1.35357 5.02014 1.8443 3.79732 2.75921 2.92819C4.33843 1.35299 6.62244 0.90988 8.74852 0.687668C12.0988 0.374731 15.4635 0.272172 18.8242 0.14726ZM0 21.2121C18.0886 24.5694 36.1706 27.9832 54.2566 31.3602C54.6519 31.4573 55.0747 31.4652 55.4543 31.6109L55.5 31.7159C55.4008 34.7005 55.3434 37.6877 55.2364 40.6722C55.1673 42.5136 54.9742 44.4404 54.0322 46.0626C53.0223 47.7399 51.1409 48.6678 49.2791 49.0183C46.5353 49.5367 43.7328 49.5708 40.9537 49.7244C28.996 50.2704 17.0135 49.9685 5.07534 49.1417C4.1216 49.0747 3.15089 49.0577 2.22454 48.7912C1.7444 48.639 1.24861 48.3935 0.977232 47.9473C0.68628 47.3619 0.668014 46.6939 0.596255 46.056C0.340531 42.574 0.20484 39.0854 0.0234849 35.5995C6.18174 35.9932 12.3504 36.2137 18.5204 36.3516C24.4778 36.4487 30.4351 36.4474 36.3924 36.5064C37.6776 36.5602 39.0671 36.3135 40.0417 35.4053C40.1839 35.2412 40.4149 35.089 40.3914 34.8435C37.7063 34.438 35.0368 33.934 32.357 33.4903C21.5748 31.6358 10.7874 29.7984 0.00652358 27.9333C-0.00652358 25.6929 0.00913301 23.4525 0 21.2121Z" fill="#19191B"/>
</svg>
