<svg width="30" height="30" viewBox="0 0 30 30" fill="none" xmlns="http://www.w3.org/2000/svg">
<g id="&#240;&#159;&#166;&#134; icon &#34;search outline&#34;">
<path id="Vector" d="M25.1266 23.4038L21.0015 19.2908C22.3325 17.5953 23.0546 15.5014 23.052 13.3459C23.052 11.4262 22.4827 9.54961 21.4162 7.95345C20.3497 6.35729 18.8338 5.11324 17.0602 4.37861C15.2867 3.64398 13.3351 3.45176 11.4523 3.82627C9.5695 4.20079 7.84004 5.1252 6.48262 6.48262C5.1252 7.84004 4.20079 9.5695 3.82627 11.4523C3.45176 13.3351 3.64398 15.2867 4.37861 17.0602C5.11324 18.8338 6.35729 20.3497 7.95345 21.4162C9.54961 22.4827 11.4262 23.052 13.3459 23.052C15.5014 23.0546 17.5953 22.3325 19.2908 21.0015L23.4038 25.1266C23.5166 25.2403 23.6508 25.3306 23.7986 25.3922C23.9465 25.4538 24.105 25.4855 24.2652 25.4855C24.4254 25.4855 24.584 25.4538 24.7318 25.3922C24.8797 25.3306 25.0138 25.2403 25.1266 25.1266C25.2403 25.0138 25.3306 24.8797 25.3922 24.7318C25.4538 24.584 25.4855 24.4254 25.4855 24.2652C25.4855 24.105 25.4538 23.9465 25.3922 23.7986C25.3306 23.6508 25.2403 23.5166 25.1266 23.4038ZM6.0663 13.3459C6.0663 11.9061 6.49324 10.4987 7.29312 9.30155C8.09301 8.10443 9.22993 7.17139 10.5601 6.62042C11.8903 6.06945 13.3539 5.92529 14.766 6.20617C16.1781 6.48706 17.4752 7.18037 18.4933 8.19843C19.5114 9.2165 20.2047 10.5136 20.4856 11.9257C20.7664 13.3378 20.6223 14.8015 20.0713 16.1316C19.5203 17.4618 18.5873 18.5987 17.3902 19.3986C16.1931 20.1985 14.7856 20.6254 13.3459 20.6254C11.4152 20.6254 9.56362 19.8585 8.19843 18.4933C6.83325 17.1281 6.0663 15.2765 6.0663 13.3459Z" fill="white"/>
</g>
</svg>
